<?xml version="1.0" encoding="iso-8859-1"?>
<!-- Generator: Adobe Illustrator 19.0.0, SVG Export Plug-In . SVG Version: 6.00 Build 0)  -->
<svg version="1.1" id="Capa_1" xmlns="http://www.w3.org/2000/svg" xmlns:xlink="http://www.w3.org/1999/xlink" x="0px" y="0px"
	 viewBox="0 0 58 58" style="enable-background:new 0 0 58 58;" xml:space="preserve">
<g>
	<path d="M29,0c-4.47,0-8.706,1.018-12.491,2.832L16.5,2.828l-0.447,0.224c-0.112,0.056-0.217,0.121-0.328,0.178
		c-0.359,0.186-0.713,0.378-1.063,0.578c-0.213,0.121-0.428,0.241-0.638,0.367c-0.277,0.168-0.548,0.345-0.819,0.522
		c-0.504,0.326-0.995,0.666-1.474,1.02c-0.039,0.029-0.078,0.057-0.116,0.086C6.7,9.47,3.124,14.545,1.326,20.328
		c-0.009,0.027-0.018,0.054-0.026,0.082c-0.118,0.385-0.228,0.772-0.331,1.163c-0.053,0.199-0.1,0.4-0.149,0.601
		c-0.078,0.324-0.159,0.647-0.226,0.975c-0.106,0.515-0.196,1.036-0.274,1.561c-0.031,0.211-0.054,0.423-0.081,0.635
		c-0.052,0.415-0.096,0.833-0.131,1.253c-0.016,0.192-0.032,0.384-0.044,0.577C0.026,27.779,0,28.386,0,29s0.026,1.221,0.063,1.825
		c0.012,0.193,0.028,0.385,0.044,0.577c0.035,0.42,0.079,0.838,0.131,1.253c0.026,0.212,0.05,0.424,0.081,0.635
		c0.078,0.525,0.168,1.046,0.274,1.561c0.067,0.328,0.148,0.65,0.226,0.975c0.049,0.201,0.096,0.402,0.149,0.601
		c0.103,0.391,0.213,0.778,0.331,1.163c0.008,0.027,0.018,0.054,0.026,0.082C3.124,43.455,6.7,48.53,11.616,52.197
		c0.038,0.029,0.077,0.057,0.116,0.086c0.479,0.354,0.97,0.694,1.474,1.02c0.271,0.177,0.542,0.354,0.819,0.522
		c0.21,0.126,0.424,0.246,0.638,0.367c0.35,0.2,0.704,0.393,1.063,0.578c0.111,0.057,0.216,0.122,0.328,0.178l0.447,0.224
		l0.009-0.004C20.294,56.982,24.53,58,29,58c15.991,0,29-13.01,29-29S44.991,0,29,0z M46.734,49.333C46.551,49.132,46.294,49,46,49
		c-0.552,0-1,0.448-1,1c0,0.221,0.086,0.414,0.207,0.58C40.69,53.981,35.077,56,29,56c-3.537,0-6.915-0.691-10.013-1.933
		C18.988,54.043,19,54.024,19,54c0-0.06-0.024-0.112-0.034-0.169c4.51-2.712,8.108-6.517,10.532-10.985
		C29.648,42.935,29.813,43,30,43c0.552,0,1-0.448,1-1c0-0.417-0.256-0.773-0.62-0.923C32.075,37.364,33,33.267,33,29
		c0-3.759-0.726-7.382-2.054-10.731C30.971,18.181,31,18.095,31,18c0-0.372-0.212-0.683-0.513-0.855
		c-2.413-5.407-6.466-10.006-11.743-13.115c1.005-0.415,2.042-0.768,3.103-1.06C21.899,2.977,21.946,3,22,3
		c0.236,0,0.443-0.094,0.614-0.23C24.663,2.271,26.8,2,29,2c0,0.552,0.448,1,1,1c0.524,0,0.941-0.407,0.984-0.919
		c3.796,0.277,7.376,1.34,10.578,3.031C41.232,5.275,41,5.607,41,6c0,0.552,0.448,1,1,1s1-0.448,1-1c0-0.032-0.015-0.059-0.018-0.09
		c4.448,2.703,8.057,6.656,10.337,11.366C53.125,17.458,53,17.713,53,18c0,0.552,0.448,1,1,1c0.024,0,0.044-0.012,0.067-0.013
		C55.309,22.085,56,25.463,56,29c0,6.077-2.019,11.69-5.42,16.207C50.414,45.086,50.221,45,50,45c-0.552,0-1,0.448-1,1
		c0,0.294,0.132,0.551,0.333,0.734C48.526,47.658,47.658,48.526,46.734,49.333z"/>
	<circle cx="30" cy="10" r="1"/>
	<circle cx="26" cy="6" r="1"/>
	<circle cx="30" cy="50" r="1"/>
	<circle cx="26" cy="54" r="1"/>
	<circle cx="38" cy="10" r="1"/>
	<circle cx="46" cy="10" r="1"/>
	<circle cx="34" cy="14" r="1"/>
	<circle cx="42" cy="14" r="1"/>
	<circle cx="34" cy="6" r="1"/>
	<circle cx="38" cy="18" r="1"/>
	<circle cx="46" cy="18" r="1"/>
	<circle cx="34" cy="22" r="1"/>
	<circle cx="42" cy="22" r="1"/>
	<circle cx="38" cy="26" r="1"/>
	<circle cx="46" cy="26" r="1"/>
	<circle cx="34" cy="30" r="1"/>
	<circle cx="42" cy="30" r="1"/>
	<circle cx="38" cy="34" r="1"/>
	<circle cx="46" cy="34" r="1"/>
	<circle cx="34" cy="38" r="1"/>
	<circle cx="42" cy="38" r="1"/>
	<circle cx="38" cy="42" r="1"/>
	<circle cx="46" cy="42" r="1"/>
	<circle cx="34" cy="46" r="1"/>
	<circle cx="42" cy="46" r="1"/>
	<circle cx="38" cy="50" r="1"/>
	<circle cx="34" cy="54" r="1"/>
	<circle cx="50" cy="14" r="1"/>
	<circle cx="50" cy="22" r="1"/>
	<circle cx="54" cy="26" r="1"/>
	<circle cx="50" cy="30" r="1"/>
	<circle cx="54" cy="34" r="1"/>
	<circle cx="50" cy="38" r="1"/>
</g>
<g>
</g>
<g>
</g>
<g>
</g>
<g>
</g>
<g>
</g>
<g>
</g>
<g>
</g>
<g>
</g>
<g>
</g>
<g>
</g>
<g>
</g>
<g>
</g>
<g>
</g>
<g>
</g>
<g>
</g>
</svg>
